<?xml version="1.0" encoding="UTF-8"?>
<svg version="1.1" xmlns="http://www.w3.org/2000/svg" width="512" height="512">
<path d="M0 0 C1.20119856 -0.00850552 2.40239712 -0.01701104 3.63999563 -0.0257743 C6.95291326 -0.04412861 10.26441508 -0.04024945 13.57726276 -0.02663505 C17.15816485 -0.01734753 20.73893007 -0.03689346 24.3197937 -0.0526123 C31.32646592 -0.07865537 38.33288116 -0.07762429 45.33958333 -0.06657412 C51.03629451 -0.05800393 56.73293153 -0.05885574 62.42964363 -0.06637001 C63.2414932 -0.0674249 64.05334276 -0.06847979 64.88979383 -0.06956664 C66.53924073 -0.07173764 68.18868761 -0.07392442 69.83813448 -0.07612679 C85.29367763 -0.09554209 100.74907684 -0.08357277 116.20460821 -0.06134085 C129.45426212 -0.04309263 142.70363732 -0.0539927 155.95326233 -0.08564758 C171.35324585 -0.12243803 186.75305536 -0.13942209 202.15308291 -0.12623531 C203.79665122 -0.12489426 205.44021956 -0.12358528 207.08378792 -0.12230873 C207.89237433 -0.12167807 208.70096073 -0.1210474 209.53404976 -0.12039762 C215.22068937 -0.11737473 220.90719733 -0.12861136 226.59380913 -0.14555931 C233.52872634 -0.16591692 240.46325041 -0.16496523 247.39814728 -0.13692691 C250.93377608 -0.12318522 254.46871934 -0.11890166 258.00432205 -0.14087677 C261.84332989 -0.16442175 265.68126554 -0.14114867 269.52026367 -0.11352539 C270.62893498 -0.12759184 271.73760629 -0.14165829 272.87987369 -0.156151 C280.49994223 -0.04586658 285.87095499 1.79522841 291.82362366 6.64164734 C300.17525238 16.21906561 300.1269631 26.84952954 300.08924866 39.02055359 C300.09059921 40.40100167 300.09254298 41.78144928 300.095047 43.16189575 C300.09797894 46.0405281 300.09376264 48.91903549 300.08436584 51.7976532 C300.07296159 55.46799171 300.07954909 59.13803795 300.09151077 62.80836582 C300.09877263 65.65413577 300.09642188 68.49983755 300.09125519 71.34560966 C300.08929259 73.350668 300.09531327 75.35572911 300.10151672 77.36077881 C300.06853297 83.80470386 299.77121764 89.48313082 297.82362366 95.64164734 C298.5233429 95.62593689 299.22306213 95.61022644 299.94398499 95.59403992 C303.17461261 95.53092404 306.40510984 95.49241654 309.63612366 95.45414734 C310.7363385 95.42901062 311.83655334 95.4038739 312.97010803 95.37797546 C324.15558421 95.27898895 334.18571767 97.10877077 342.82362366 104.64164734 C348.44642195 110.27226594 351.68839504 116.80091864 355.1131134 123.90083313 C356.42563139 126.62124079 357.76096163 129.33023506 359.09519958 132.04003906 C359.76053902 133.39162315 360.42479354 134.74374186 361.0879364 136.09640503 C363.54095438 141.09499668 366.08409025 146.03804782 368.69862366 150.95414734 C369.24993958 152.02342468 369.24993958 152.02342468 369.81239319 153.11430359 C372.09358086 157.51286274 374.50201964 161.80491616 377.03897095 166.05935669 C389.11184171 186.44622732 395.87390901 204.2410608 389.93959045 228.21269226 C385.16431681 244.35875124 377.11791465 255.6572141 362.82362366 264.64164734 C356.51246053 268.03336086 350.85494558 269.88381686 343.82362366 271.64164734 C343.49362366 331.37164734 343.16362366 391.10164734 342.82362366 452.64164734 C351.07362366 452.64164734 359.32362366 452.64164734 367.82362366 452.64164734 C378.91095841 457.56935167 384.58953034 461.03916862 389.88587952 471.79985046 C391.06282621 475.36654131 391.12920394 478.7127469 391.12440491 482.42680359 C391.1308326 483.53395973 391.1308326 483.53395973 391.13739014 484.66348267 C391.14311206 486.21747312 391.14364951 487.77149034 391.13929749 489.32548523 C391.1361289 491.70021604 391.15965112 494.07371016 391.18495178 496.44828796 C391.18722418 497.96195827 391.18792855 499.47563192 391.18690491 500.98930359 C391.19611465 501.69668167 391.2053244 502.40405975 391.21481323 503.13287354 C391.18834177 505.95590366 391.00437706 508.24898161 389.81680107 510.82885224 C386.75473597 513.61380082 383.49356463 513.18948325 379.56047058 513.14221859 C378.27515084 513.15048984 378.27515084 513.15048984 376.96386504 513.15892819 C374.06673412 513.17262071 371.17044681 513.15757402 368.27333069 513.14285278 C366.18572675 513.14674215 364.09812546 513.15237966 362.01053047 513.15962368 C356.25381066 513.17444859 350.49736241 513.16415544 344.74065113 513.14988697 C338.54016554 513.13882089 332.33971942 513.15070526 326.13923645 513.159729 C314.68782456 513.17288535 303.2365348 513.16785807 291.78513175 513.15365372 C281.2073173 513.14061704 270.6295343 513.13540305 260.05171204 513.13797188 C259.00043722 513.1382125 259.00043722 513.1382125 257.92792453 513.13845799 C255.08315684 513.13912154 252.23838917 513.13982395 249.39362151 513.14058333 C222.69147287 513.14761204 195.98937961 513.13210043 169.28724506 513.10595987 C145.54870282 513.08284372 121.81022149 513.07745613 98.07167053 513.08769226 C91.99351504 513.09029414 85.91535955 513.09287911 79.83720398 513.09529018 C79.08898025 513.09558763 78.34075652 513.09588508 77.56985934 513.09619154 C57.75142163 513.10380138 37.93298893 513.09739879 18.11455345 513.08659416 C15.9828099 513.08544633 13.85106634 513.08430315 11.71932279 513.08316734 C10.30509828 513.08241209 8.89087379 513.08164645 7.4766493 513.08087033 C-3.09615403 513.07520482 -13.66894161 513.0765468 -24.241745 513.08109856 C-36.25996666 513.08619896 -48.27811438 513.08008608 -60.29632616 513.06020426 C-66.43330653 513.05030342 -72.57019063 513.04525714 -78.70717621 513.05309677 C-84.31776926 513.06011756 -89.92816745 513.05343391 -95.53873467 513.03549314 C-97.5756933 513.03142513 -99.61266949 513.0324875 -101.64962173 513.03901201 C-104.40439308 513.04708503 -107.15849544 513.03694495 -109.91322327 513.02196407 C-111.11781358 513.03207055 -111.11781358 513.03207055 -112.34673905 513.0423812 C-117.65383548 512.98601575 -117.65383548 512.98601575 -120.16657829 511.330051 C-121.88776948 508.45218299 -121.64421303 505.3030259 -121.64512634 502.04399109 C-121.65273987 501.29509109 -121.66035339 500.5461911 -121.66819763 499.77459717 C-121.67900356 498.18677598 -121.6818497 496.59888369 -121.67735291 495.0110321 C-121.67638924 492.61125895 -121.71781361 490.21477953 -121.76231384 487.81547546 C-121.84267075 477.45571459 -120.70513632 470.00465257 -113.80137634 461.82914734 C-100.38440868 450.64834095 -93.89329071 452.64164734 -73.17637634 452.64164734 C-73.50637634 392.91164734 -73.83637634 333.18164734 -74.17637634 271.64164734 C-78.46637634 270.32164734 -82.75637634 269.00164734 -87.17637634 267.64164734 C-102.52021414 260.2766052 -113.37766033 248.75668369 -119.17637634 232.64164734 C-127.01738118 205.91094902 -119.4991811 187.24028041 -106.73789978 163.76152039 C-104.57286652 159.82191246 -102.37854536 155.89993849 -100.16856384 151.98539734 C-96.26229807 145.05460801 -92.65262384 137.9839313 -89.05137634 130.89164734 C-87.11071907 127.13218384 -85.1490835 123.38437217 -83.17637634 119.64164734 C-82.66655212 118.65865662 -82.15672791 117.67566589 -81.63145447 116.66288757 C-81.11776306 115.69037048 -80.60407166 114.71785339 -80.07481384 113.71586609 C-79.62025818 112.84792419 -79.16570251 111.9799823 -78.69737244 111.08573914 C-73.47886628 102.7001107 -65.57168251 98.8223015 -56.40122986 96.11820984 C-53.68590477 95.53658858 -51.09243537 95.42436373 -48.31700134 95.32524109 C-47.20196228 95.28334656 -46.08692322 95.24145203 -44.93809509 95.19828796 C-43.19979431 95.13931335 -43.19979431 95.13931335 -41.42637634 95.07914734 C-40.25204041 95.03596375 -39.07770447 94.99278015 -37.86778259 94.94828796 C-34.97076184 94.8422994 -32.07365699 94.74023096 -29.17637634 94.64164734 C-29.33805298 93.78548828 -29.49972961 92.92932922 -29.66630554 92.04722595 C-30.16856452 88.6938044 -30.31668865 85.54084948 -30.33750916 82.15238953 C-30.3471167 80.88377075 -30.35672424 79.61515198 -30.36662292 78.30809021 C-30.37147237 76.93490277 -30.37575084 75.56171322 -30.37950134 74.18852234 C-30.38374241 73.13982342 -30.38374241 73.13982342 -30.38806915 72.06993866 C-30.40301352 68.36906564 -30.41227261 64.66823111 -30.41661072 60.96733093 C-30.42208432 57.17037319 -30.44610222 53.37377602 -30.47458267 49.576931 C-30.49332841 46.63415032 -30.49842098 43.69145439 -30.49994659 40.74861908 C-30.50294747 39.35015648 -30.51088777 37.95169443 -30.52413177 36.55329132 C-30.62802456 24.73924214 -29.77811539 14.40221888 -21.17637634 5.64164734 C-14.45269513 0.49606307 -8.25537755 -0.07781613 0 0 Z " fill="#E75462" transform="translate(121.17637634277344,-0.6416473388671875)"/>
<path d="M0 0 C26.4 0 52.8 0 80 0 C74.5658643 38.03894988 74.5658643 38.03894988 72.7978363 47.70414734 C69.09536243 67.95603923 67.3485182 87.84023562 67.1875 108.4375 C67.15820908 110.10596481 67.15820908 110.10596481 67.12832642 111.80813599 C67.08093005 114.99715842 67.08453943 118.18186565 67.10546875 121.37109375 C67.08841888 122.31326752 67.07136902 123.25544128 67.05380249 124.22616577 C67.20896053 131.68089972 70.01314631 135.63315874 75 141 C75.84723885 141.97077736 75.84723885 141.97077736 76.71159363 142.96116638 C86.81788912 154.35429708 102.24015435 158.98207961 117 160 C117 165.94 117 171.88 117 178 C118.93074875 177.99111755 120.8614975 177.98223511 122.85075378 177.9730835 C141.02360482 177.89208636 159.19641941 177.83183688 177.36941051 177.79275131 C186.71290013 177.77212188 196.05625504 177.74399402 205.3996582 177.69824219 C213.54292287 177.65838606 221.68608998 177.63256996 229.82944947 177.62364602 C234.14174971 177.61842918 238.45377085 177.60615993 242.76598167 177.57707977 C246.8248377 177.54992991 250.88329965 177.54155406 254.94223785 177.54756927 C256.43177494 177.54646884 257.9213252 177.5385121 259.41078377 177.5231781 C261.4452015 177.50326109 263.47983067 177.51044919 265.514328 177.51898193 C267.22194951 177.51345118 267.22194951 177.51345118 268.96406841 177.50780869 C272.67414291 178.1092934 274.33035174 179.40734075 277 182 C278.23609512 184.47219023 278.13128702 186.11054258 278.14044189 188.87641907 C278.14615204 189.90688354 278.15186218 190.93734802 278.15774536 191.9990387 C278.15886322 193.13413376 278.15998108 194.26922882 278.16113281 195.4387207 C278.16609772 196.63067047 278.17106262 197.82262024 278.17617798 199.0506897 C278.18829954 202.32560171 278.1957483 205.600478 278.20018864 208.87540841 C278.20311876 210.92142466 278.20722348 212.96743529 278.21169281 215.01344872 C278.22537028 221.41481034 278.23503533 227.81615914 278.2388947 234.21753436 C278.24337423 241.60706108 278.26091601 248.9964027 278.2898953 256.38587314 C278.31151575 262.09720085 278.3215992 267.80847651 278.32293582 273.51984471 C278.32398373 276.93109605 278.3298881 280.34217347 278.34775543 283.75338173 C278.3647732 287.56009638 278.36294577 291.36635865 278.35644531 295.1730957 C278.3656601 296.30211807 278.37487488 297.43114044 278.3843689 298.59437561 C278.37601517 300.15276154 278.37601517 300.15276154 278.36749268 301.74263 C278.36895924 302.6424677 278.3704258 303.54230539 278.3719368 304.4694109 C277.90798802 307.6260325 276.91271069 309.45669039 275 312 C271.71646037 314.37734767 268.64340129 314.24697622 264.67254639 314.24050903 C263.37126801 314.24325836 262.06998962 314.24600769 260.72927856 314.24884033 C259.28924468 314.24176245 257.84921173 314.23449283 256.40917969 314.22705078 C254.89136767 314.22648658 253.37355511 314.2268034 251.85574341 314.22793579 C247.73622916 314.22850995 243.61683122 314.2167454 239.49734402 314.20278788 C235.19185919 314.19029108 230.88637174 314.18911085 226.58087158 314.18673706 C218.42822339 314.1805192 210.27562879 314.16410424 202.1230042 314.14403808 C192.84135433 314.1216886 183.5597019 314.11068804 174.27803183 314.10064721 C155.18532332 314.07973829 136.09266793 314.04415381 117 314 C117 322.91 117 331.82 117 341 C48.36 341 -20.28 341 -91 341 C-91 281.27 -91 221.54 -91 160 C-85.06 159.67 -79.12 159.34 -73 159 C-57.38245999 156.21667604 -45.06351299 148.52204823 -34.8215332 136.42749023 C-32.3634411 131.80221815 -32.93257056 128.70877971 -33.515625 123.6328125 C-37.00415406 76.82142442 -18.72292812 43.09944629 0 0 Z " fill="#FCCE67" transform="translate(139,111)"/>
<path d="M0 0 C26.07 0 52.14 0 79 0 C82.96 9.57 86.92 19.14 91 29 C92.81886719 32.9290625 94.63773437 36.858125 96.51171875 40.90625 C107.91216266 66.0068899 113.23864611 87.08712479 111.9597168 114.81445312 C110.88506275 127.23354525 110.88506275 127.23354525 115.69140625 138.234375 C117.74528653 140.26735461 117.74528653 140.26735461 120 142 C120.81001465 142.73911621 121.6200293 143.47823242 122.45458984 144.23974609 C136.70776171 157.07165262 152.11193189 158 171 158 C170.67 218.06 170.34 278.12 170 340 C178.25 340 186.5 340 195 340 C206.08733475 344.92770433 211.76590669 348.39752128 217.06225586 359.15820312 C218.23920256 362.72489397 218.30558029 366.07109956 218.30078125 369.78515625 C218.30720894 370.89231239 218.30720894 370.89231239 218.31376648 372.02183533 C218.3194884 373.57582578 218.32002585 375.129843 218.31567383 376.68383789 C218.31250525 379.0585687 218.33602746 381.43206282 218.36132812 383.80664062 C218.36360053 385.32031093 218.36430489 386.83398458 218.36328125 388.34765625 C218.372491 389.05503433 218.38170074 389.76241241 218.39118958 390.4912262 C218.36471812 393.31425632 218.1807534 395.60733427 216.99317741 398.1872049 C213.93111232 400.97215348 210.66994097 400.54783592 206.73684692 400.50057125 C205.45152718 400.5088425 205.45152718 400.5088425 204.14024138 400.51728085 C201.24311046 400.53097337 198.34682315 400.51592668 195.44970703 400.50120544 C193.3621031 400.50509482 191.2745018 400.51073232 189.18690681 400.51797634 C183.430187 400.53280125 177.67373876 400.5225081 171.91702747 400.50823963 C165.71654188 400.49717355 159.51609576 400.50905792 153.31561279 400.51808167 C141.8642009 400.53123801 130.41291114 400.52621073 118.9615081 400.51200638 C108.38369365 400.4989697 97.80591064 400.49375571 87.22808838 400.49632454 C86.17681356 400.49656516 86.17681356 400.49656516 85.10430087 400.49681065 C82.25953319 400.4974742 79.41476552 400.49817661 76.56999785 400.49893599 C49.86784921 400.5059647 23.16575595 400.49045309 -3.53637859 400.46431253 C-27.27492083 400.44119638 -51.01340217 400.43580879 -74.75195312 400.44604492 C-80.83010862 400.4486468 -86.90826411 400.45123177 -92.98641968 400.45364285 C-93.73464341 400.45394029 -94.48286714 400.45423774 -95.25376432 400.4545442 C-115.07220203 400.46215404 -134.89063472 400.45575145 -154.70907021 400.44494683 C-156.84081376 400.44379899 -158.97255731 400.44265581 -161.10430087 400.44152 C-162.51852537 400.44076475 -163.93274987 400.43999911 -165.34697436 400.43922299 C-175.91977769 400.43355748 -186.49256526 400.43489946 -197.06536865 400.43945122 C-209.08359031 400.44455162 -221.10173804 400.43843874 -233.11994982 400.41855692 C-239.25693019 400.40865608 -245.39381429 400.4036098 -251.53079987 400.41144943 C-257.14139292 400.41847022 -262.75179111 400.41178657 -268.36235833 400.3938458 C-270.39931696 400.38977779 -272.43629314 400.39084016 -274.47324538 400.39736467 C-277.22801673 400.4054377 -279.9821191 400.39529761 -282.73684692 400.38031673 C-283.53990713 400.38705439 -284.34296734 400.39379204 -285.17036271 400.40073386 C-290.47745913 400.34436841 -290.47745913 400.34436841 -292.99020195 398.68840367 C-294.71139314 395.81053565 -294.46783669 392.66137857 -294.46875 389.40234375 C-294.47636353 388.65344376 -294.48397705 387.90454376 -294.49182129 387.13294983 C-294.50262721 385.54512864 -294.50547336 383.95723635 -294.50097656 382.36938477 C-294.50001289 379.96961161 -294.54143727 377.57313219 -294.5859375 375.17382812 C-294.66629441 364.81406725 -293.52875997 357.36300523 -286.625 349.1875 C-278.42499789 342.35416491 -272.22488918 339.68877927 -261.43289185 339.75949097 C-259.99800047 339.75692769 -259.99800047 339.75692769 -258.53412139 339.75431263 C-255.33272969 339.75102164 -252.13154814 339.76201512 -248.93017578 339.77294922 C-246.63375351 339.77351342 -244.33733088 339.77319661 -242.04090881 339.77206421 C-235.80796024 339.77149003 -229.57508854 339.78325496 -223.34215784 339.79721212 C-216.82787115 339.80970858 -210.31358272 339.81088913 -203.79928589 339.81326294 C-192.86585112 339.81877429 -181.93244476 339.83126954 -170.99902344 339.84912109 C-159.73893372 339.86748686 -148.47885167 339.88163996 -137.21875 339.89013672 C-136.17715956 339.89092489 -136.17715956 339.89092489 -135.11452688 339.89172898 C-131.63086214 339.89433911 -128.14719733 339.89686651 -124.6635325 339.89935279 C-95.77566913 339.9200769 -66.88783658 339.9558466 -38 340 C-38 331.09 -38 322.18 -38 313 C-36.08177933 312.99413376 -34.16355865 312.98826752 -32.18721008 312.98222351 C-14.13197221 312.92507306 3.92314552 312.85252967 21.97825909 312.76428509 C31.26112928 312.71931105 40.54396097 312.6799001 49.8269043 312.65356445 C57.91750306 312.63059739 66.00798015 312.59721385 74.09848243 312.55129844 C78.38273256 312.52734875 82.66686204 312.50863144 86.9511776 312.50238609 C90.98380583 312.4963431 95.01612531 312.47637192 99.0486393 312.44572449 C100.52845746 312.43693162 102.00831595 312.43322427 103.48815918 312.43499184 C105.50957221 312.43664392 107.53097179 312.4181828 109.55229187 312.39872742 C110.68333186 312.39411845 111.81437185 312.38950949 112.97968578 312.38476086 C116.39367999 311.94984871 118.2832684 311.09156944 121 309 C121.98621062 306.04136814 122.13474068 304.09021662 122.15390015 301.00332642 C122.16680084 299.4555677 122.16680084 299.4555677 122.17996216 297.87654114 C122.18422211 296.74504135 122.18848206 295.61354156 122.19287109 294.44775391 C122.20104858 293.25565811 122.20922607 292.06356232 122.21765137 290.83534241 C122.24250637 286.88242937 122.25917237 282.92952382 122.2734375 278.9765625 C122.27879831 277.61493295 122.28417582 276.25330346 122.28956985 274.89167404 C122.3111904 269.22813903 122.32992763 263.56460684 122.34119225 257.90104103 C122.35743728 249.78740053 122.39063707 241.67423842 122.44759309 233.56077826 C122.4862902 227.85368041 122.50582445 222.14671056 122.51111281 216.43948495 C122.51476593 213.0314567 122.52678188 209.62393915 122.55921555 206.21605301 C122.5907144 202.41400707 122.59092619 198.61317646 122.58349609 194.81103516 C122.6081041 193.11985817 122.6081041 193.11985817 122.63320923 191.39451599 C122.62489075 190.3570372 122.61657227 189.31955841 122.60800171 188.25064087 C122.61131186 187.35210199 122.614622 186.45356312 122.61803246 185.52779579 C121.70796728 181.80556584 120.00109411 180.31494984 117 178 C113.91793091 177.25342319 113.91793091 177.25342319 110.514328 177.36076355 C109.2032608 177.34547607 107.8921936 177.3301886 106.54139709 177.31443787 C105.09554783 177.32268929 103.64970123 177.33141801 102.20385742 177.34057617 C100.67603243 177.33212104 99.14821822 177.32147604 97.62042236 177.30880737 C93.47813826 177.28065829 89.33637193 177.28313299 85.19402099 177.29110122 C80.86310036 177.2942258 76.53234477 177.26919339 72.20149231 177.24714661 C64.00283281 177.20968904 55.80433918 177.19755761 47.60560256 177.1945222 C38.27063868 177.18983323 28.93584115 177.15691509 19.6009506 177.12162435 C0.40064458 177.04966972 -18.79957037 177.01417117 -38 177 C-38 171.06 -38 165.12 -38 159 C-35.958125 158.773125 -33.91625 158.54625 -31.8125 158.3125 C-14.70442006 155.82656306 -1.18763738 147.50933606 9.58349609 134.01635742 C11.67315659 129.5665547 11.52535216 125.39107787 11.57421875 120.52734375 C11.59198364 119.47647079 11.60974854 118.42559784 11.62805176 117.34288025 C11.67222616 113.87412949 11.68427254 110.40652103 11.6875 106.9375 C11.69190094 105.74860168 11.69630188 104.55970337 11.70083618 103.33477783 C11.71136202 78.63208675 8.37968302 54.89073833 3.99755859 30.63574219 C2.99431744 25.04281497 2.09073604 19.43807002 1.23828125 13.8203125 C1.04784492 12.58980667 1.04784492 12.58980667 0.8535614 11.33444214 C0.7398671 10.57197174 0.62617279 9.80950134 0.5090332 9.02392578 C0.36048637 8.03430344 0.36048637 8.03430344 0.2089386 7.02468872 C-0.03152981 4.69446504 0 2.34259844 0 0 Z " fill="#F4B354" transform="translate(294,112)"/>
<path d="M0 0 C0.79100883 -0.00350607 1.58201767 -0.00701215 2.39699647 -0.01062447 C5.05182943 -0.01994027 7.70644311 -0.01501469 10.36128521 -0.01015663 C12.2822081 -0.01389279 14.20312946 -0.01849418 16.12404841 -0.02388728 C21.40626758 -0.0361368 26.68842351 -0.03585451 31.97065365 -0.03349853 C37.66608003 -0.03309085 43.36148599 -0.04412473 49.05690289 -0.05361366 C60.21653185 -0.07023517 71.37613969 -0.07572372 82.53577999 -0.07683842 C91.60545308 -0.07778831 100.67511919 -0.08189568 109.74479008 -0.08823967 C131.26726137 -0.102988 152.78972579 -0.11528907 174.31220245 -0.11424255 C175.34463718 -0.11419582 175.34463718 -0.11419582 176.39792918 -0.11414814 C179.88646452 -0.11398192 183.37499986 -0.11378384 186.8635352 -0.11357872 C187.55637027 -0.11353883 188.24920534 -0.11349894 188.96303541 -0.11345784 C190.36411671 -0.11337697 191.76519801 -0.11329337 193.16627931 -0.11320706 C214.96525062 -0.11198153 236.76415971 -0.12699519 258.56311321 -0.15435219 C283.05442649 -0.18507535 307.54569175 -0.20225921 332.03702658 -0.20042574 C345.00460618 -0.19976132 357.97211561 -0.2052766 370.93967915 -0.22678185 C381.97976647 -0.24497306 393.01975182 -0.24935786 404.05984763 -0.235763 C409.69334197 -0.22922309 415.32664055 -0.22915322 420.96011639 -0.2464695 C426.11759671 -0.26215972 431.2747254 -0.25937789 436.43219694 -0.24190123 C438.29757743 -0.23882243 440.1629839 -0.24249676 442.02833376 -0.25362138 C459.69926604 -0.35202478 459.69926604 -0.35202478 467.00915813 4.25726891 C468.58697063 5.09258141 468.58697063 5.09258141 470.19665813 5.94476891 C475.33164474 10.166869 478.92905376 15.95359409 481.00915813 22.25726891 C481.20855885 24.88918117 481.3133382 27.41202477 481.30993938 30.04242516 C481.31636707 31.1495813 481.31636707 31.1495813 481.32292461 32.27910423 C481.32864654 33.83309468 481.32918399 35.38711191 481.32483196 36.9411068 C481.32166338 39.31583761 481.3451856 41.68933172 481.37048626 44.06390953 C481.37275866 45.57757984 481.37346302 47.09125349 481.37243938 48.60492516 C481.38164913 49.31230324 481.39085888 50.01968132 481.40034771 50.7484951 C481.37387625 53.57152523 481.18991154 55.86460318 480.00233555 58.4444738 C476.94027045 61.22942238 473.67909911 60.80510482 469.74600506 60.75784016 C468.88912523 60.76335432 468.0322454 60.76886849 467.14939952 60.77454975 C464.25226859 60.78824227 461.35598128 60.77319558 458.45886517 60.75847435 C456.37126123 60.76236372 454.28365994 60.76800122 452.19606495 60.77524525 C446.43934514 60.79007015 440.68289689 60.77977701 434.92618561 60.76550853 C428.72570001 60.75444246 422.52525389 60.76632683 416.32477093 60.77535057 C404.87335904 60.78850692 393.42206928 60.78347963 381.97066623 60.76927528 C371.39285178 60.75623861 360.81506878 60.75102461 350.23724651 60.75359344 C349.1859717 60.75383407 349.1859717 60.75383407 348.11345901 60.75407955 C345.26869132 60.75474311 342.42392365 60.75544551 339.57915599 60.75620489 C312.87700734 60.76323361 286.17491409 60.747722 259.47277954 60.72158143 C235.7342373 60.69846529 211.99575597 60.69307769 188.25720501 60.70331383 C182.17904952 60.7059157 176.10089403 60.70850068 170.02273846 60.71091175 C169.27451473 60.7112092 168.526291 60.71150665 167.75539382 60.71181311 C147.93695611 60.71942295 128.11852341 60.71302036 108.30008793 60.70221573 C106.16834438 60.70106789 104.03660082 60.69992471 101.90485726 60.69878891 C100.49063276 60.69803366 99.07640827 60.69726801 97.66218378 60.6964919 C87.08938045 60.69082639 76.51659287 60.69216836 65.94378948 60.69672012 C53.92556782 60.70182053 41.9074201 60.69570764 29.88920832 60.67582583 C23.75222795 60.66592499 17.61534384 60.6608787 11.47835827 60.66871834 C5.86776522 60.67573912 0.25736703 60.66905548 -5.3532002 60.65111471 C-7.39015882 60.6470467 -9.42713501 60.64810907 -11.46408725 60.65463357 C-14.2188586 60.6627066 -16.97296096 60.65256651 -19.72768879 60.63758564 C-20.530749 60.64432329 -21.33380921 60.65106094 -22.16120458 60.65800276 C-27.468301 60.60163732 -27.468301 60.60163732 -29.98104382 58.94567257 C-31.702235 56.06780456 -31.45867855 52.91864747 -31.45959187 49.65961266 C-31.46720539 48.91071266 -31.47481892 48.16181267 -31.48266315 47.39021873 C-31.49346908 45.80239755 -31.49631523 44.21450526 -31.49181843 42.62665367 C-31.49085476 40.22688052 -31.53227914 37.83040109 -31.57677937 35.43109703 C-31.65713627 25.07133616 -30.51960184 17.62027414 -23.61584187 9.44476891 C-16.0246815 3.11880194 -10.20183354 -0.05750253 0 0 Z " fill="#344A5C" transform="translate(30.99084186553955,451.74273109436035)"/>
<path d="M0 0 C0.67861399 -0.00709439 1.35722797 -0.01418877 2.05640602 -0.02149814 C4.3238297 -0.03906043 6.58953498 -0.02098503 8.85693359 -0.00291443 C10.48501363 -0.00805399 12.1130881 -0.01533555 13.7411499 -0.02459717 C18.15861353 -0.04311494 22.57547376 -0.03017045 26.99291229 -0.01050687 C31.61637577 0.00587794 36.23980097 -0.00293303 40.86328125 -0.00802612 C48.62753946 -0.01254727 56.39155678 0.00332404 64.15576172 0.03126526 C73.1314574 0.0633173 82.10671861 0.06330152 91.08244514 0.04605049 C99.71784028 0.0301851 108.35307618 0.03691903 116.98846436 0.0539875 C120.66302735 0.06085898 124.33746273 0.05982457 128.01202393 0.05244255 C132.33942879 0.04477972 136.66633939 0.05690551 140.99365997 0.08429146 C142.58153059 0.09117644 144.16944735 0.09127201 145.75731659 0.08407593 C147.92567613 0.07538166 150.09251015 0.09133381 152.26074219 0.11352539 C154.08029922 0.11773577 154.08029922 0.11773577 155.93661499 0.12203121 C159.74764218 0.72601641 161.40287085 1.95223626 164.13037109 4.62818909 C165.36646621 7.10037932 165.26165811 8.73873167 165.27081299 11.50460815 C165.27652313 12.53507263 165.28223328 13.56553711 165.28811646 14.62722778 C165.28979324 16.32987038 165.28979324 16.32987038 165.29150391 18.06690979 C165.29646881 19.25885956 165.30143372 20.45080933 165.30654907 21.67887878 C165.31867063 24.9537908 165.3261194 28.22866709 165.33055973 31.5035975 C165.33348985 33.54961375 165.33759458 35.59562438 165.3420639 37.6416378 C165.35574137 44.04299942 165.36540643 50.44434823 165.36926579 56.84572345 C165.37374532 64.23525016 165.3912871 71.62459179 165.42026639 79.01406223 C165.44188685 84.72538994 165.45197029 90.4366656 165.45330691 96.1480338 C165.45435482 99.55928514 165.46025919 102.97036256 165.47812653 106.38157082 C165.49514429 110.18828546 165.49331686 113.99454774 165.48681641 117.80128479 C165.49603119 118.93030716 165.50524597 120.05932953 165.51473999 121.2225647 C165.50638626 122.78095062 165.50638626 122.78095062 165.49786377 124.37081909 C165.49933033 125.27065679 165.50079689 126.17049448 165.50230789 127.09759998 C165.04619113 130.20093398 163.9481654 132.09340977 162.13037109 134.62818909 C159.2488426 136.06895334 156.76019752 135.7675174 153.53884888 135.78208923 C152.5114638 135.78866261 152.5114638 135.78866261 151.46332347 135.79536879 C149.15718688 135.80877488 146.85108851 135.81493964 144.54492188 135.82106018 C142.89596381 135.8289596 141.24700748 135.83722845 139.59805298 135.84584045 C134.17394668 135.87207482 128.7498326 135.88736755 123.32568359 135.90162659 C121.46038686 135.90698532 119.59509018 135.91236282 117.72979355 135.91775894 C109.97317487 135.939388 102.21655828 135.95812643 94.45991707 135.96938133 C83.33238883 135.98563222 72.20520913 136.01883721 61.07781231 136.07578218 C53.25951505 136.11443329 45.4413112 136.13400817 37.62292087 136.1393019 C32.9501476 136.14296145 28.27774596 136.15504672 23.60507584 136.18740463 C19.21043052 136.21740124 14.81638331 136.22382745 10.42165756 136.21202087 C8.80753097 136.21179944 7.1933773 136.22016185 5.5793457 136.23767471 C3.37745803 136.26026833 1.17775745 136.25212055 -1.0241394 136.2361908 C-2.87304685 136.24115602 -2.87304685 136.24115602 -4.75930595 136.24622154 C-7.86962891 135.62818909 -7.86962891 135.62818909 -10.26530552 133.42225838 C-12.00578674 130.39105832 -12.37362663 128.77559279 -12.3842926 125.31507874 C-12.39701706 124.26366196 -12.40974152 123.21224518 -12.42285156 122.12896729 C-12.41632568 120.98595657 -12.4097998 119.84294586 -12.40307617 118.66529846 C-12.41169174 117.45340347 -12.42030731 116.24150848 -12.42918396 114.9928894 C-12.44797787 111.67649845 -12.44874577 108.36110787 -12.43986249 105.04474068 C-12.43474605 102.27378725 -12.44205033 99.50292312 -12.44933456 96.73197889 C-12.46632414 90.19453569 -12.46277689 83.65732596 -12.44604492 77.11988831 C-12.42911741 70.37988236 -12.44496814 63.64052378 -12.4772678 56.90058851 C-12.50397159 51.10847675 -12.51123787 45.31656641 -12.50275272 39.52439928 C-12.49782651 36.06728779 -12.50002198 32.61056591 -12.52054024 29.15350342 C-12.54232275 25.2991046 -12.52348971 21.44548531 -12.50073242 17.59107971 C-12.51242462 16.448069 -12.52411682 15.30505829 -12.53616333 14.12741089 C-12.52350937 13.07599411 -12.51085541 12.02457733 -12.49781799 10.94129944 C-12.49693853 9.57526455 -12.49693853 9.57526455 -12.4960413 8.181633 C-10.86555136 1.53526928 -6.26249313 0.00302691 0 0 Z " fill="#A9C5F6" transform="translate(251.86962890625,288.37181091308594)"/>
<path d="M0 0 C0.98669955 -0.00384115 1.9733991 -0.00768229 2.98999864 -0.01163983 C4.08190072 -0.01077335 5.17380281 -0.00990687 6.29879284 -0.00901413 C7.45261918 -0.01198525 8.60644552 -0.01495637 9.79523629 -0.01801753 C13.00771846 -0.02521275 16.22016811 -0.02787801 19.43265712 -0.028615 C22.89356042 -0.03046273 26.35445205 -0.03800866 29.81534863 -0.04475021 C37.38763686 -0.05834577 44.95991981 -0.06436019 52.53221822 -0.06876087 C57.25838824 -0.07152131 61.9845562 -0.0757583 66.71072483 -0.08026505 C79.79021896 -0.09245945 92.86971143 -0.10275833 105.94921112 -0.10614014 C106.78671705 -0.1063597 107.62422298 -0.10657927 108.48710788 -0.10680549 C109.32664467 -0.10702377 110.16618145 -0.10724204 111.03115875 -0.10746694 C112.73244592 -0.10791041 114.43373309 -0.10835697 116.13502026 -0.10880661 C117.40087239 -0.10913875 117.40087239 -0.10913875 118.6922973 -0.10947761 C132.36875366 -0.11342622 146.04515675 -0.1308814 159.72159252 -0.15416613 C173.75530612 -0.17786672 187.78899297 -0.1903414 201.82272691 -0.19150805 C209.70524379 -0.19242556 217.58769129 -0.19819678 225.47018909 -0.21632767 C232.18206006 -0.23171126 238.89384021 -0.23685947 245.60572544 -0.22858956 C249.03115294 -0.2246768 252.45639745 -0.2256429 255.88180256 -0.23964691 C259.59354969 -0.25227701 263.30482306 -0.24653796 267.01656628 -0.23606491 C268.1017762 -0.24412132 269.18698612 -0.25217772 270.30508119 -0.26047826 C279.42172775 -0.20007011 279.42172775 -0.20007011 283.34815502 3.13142776 C285.72053395 6.41188977 285.60665118 9.50646261 285.62281322 13.4729805 C285.63234524 14.75788879 285.64187725 16.04279709 285.65169811 17.366642 C285.65143667 18.76610212 285.65049958 20.16556225 285.64893627 21.56502151 C285.65282497 23.00464374 285.65716 24.44426483 285.6619215 25.88388443 C285.66937682 28.8991353 285.66909747 31.91426907 285.66382885 34.92952347 C285.65803503 38.7875944 285.67496592 42.64518513 285.69817352 46.50317669 C285.7129276 49.47580122 285.71378031 52.44831054 285.7106638 55.42096519 C285.71117617 56.84308765 285.71639817 58.2652167 285.72647572 59.68730354 C285.73885382 61.67832506 285.73009771 63.66944379 285.72046947 65.6604805 C285.7210989 66.79203064 285.72172832 67.92358078 285.72237682 69.08942032 C285.29925208 72.52895431 284.41572674 74.37268764 282.34815502 77.13142776 C279.12505716 79.28015968 278.259409 79.38604988 274.54532909 79.40990067 C273.0530479 79.42664872 273.0530479 79.42664872 271.53061962 79.44373512 C269.88689877 79.44697257 269.88689877 79.44697257 268.20997143 79.45027542 C267.04820385 79.46030405 265.88643627 79.47033268 264.68946362 79.48066521 C261.45992032 79.50640736 258.23047352 79.52316915 255.00085783 79.53606892 C251.52090233 79.55205313 248.04103218 79.57932523 244.5611372 79.60499954 C236.95267223 79.65886254 229.34417438 79.69768535 221.73560619 79.73353195 C216.98713872 79.75598589 212.23869225 79.78167806 207.49024487 79.80800247 C190.10234416 79.90370765 172.7144224 79.98422505 155.32639837 80.05378556 C142.51551794 80.10535296 129.70480143 80.1730386 116.89405346 80.25056839 C102.08341196 80.34000424 87.27281549 80.41052706 72.46197224 80.45645332 C64.63056198 80.48109203 56.79936473 80.51347193 48.9680891 80.56630325 C42.30238449 80.61113031 35.63688952 80.63863707 28.97103107 80.64354372 C25.57113523 80.64653683 22.17177458 80.65759883 18.77202511 80.69047165 C15.08738134 80.72180203 11.40398854 80.72231375 7.71924877 80.71492386 C6.64514059 80.73133234 5.57103241 80.74774082 4.4643755 80.76464653 C-3.60307458 80.69677354 -3.60307458 80.69677354 -7.30003834 77.71995926 C-10.79780412 73.87012027 -10.78570481 71.9640231 -10.82884693 66.83333206 C-10.83870373 65.86470734 -10.83870373 65.86470734 -10.84875965 64.87651443 C-10.86849446 62.73622397 -10.88015593 60.59600369 -10.89012623 58.45564651 C-10.89420176 57.72453974 -10.89827728 56.99343296 -10.90247631 56.24017143 C-10.92333848 52.37002342 -10.93763916 48.49991087 -10.94701099 44.62971878 C-10.95807201 40.63476302 -10.99246717 36.64036479 -11.03218269 32.64560604 C-11.05834568 29.57177072 -11.06670253 26.49806826 -11.07029247 23.42413139 C-11.07515983 21.95174077 -11.08677822 20.47935614 -11.10533047 19.00707436 C-11.12971577 16.94350457 -11.12875918 14.88137723 -11.12181568 12.81770706 C-11.12768192 11.64459473 -11.13354816 10.47148239 -11.13959217 9.2628212 C-10.55102816 5.48417212 -9.29793293 3.83936226 -6.65184498 1.13142776 C-4.2308957 -0.07904688 -2.70550758 0.00393873 0 0 Z " fill="#E1E1E5" transform="translate(118.65184497833252,15.868572235107422)"/>
<path d="M0 0 C0.86630539 -0.01272446 1.73261078 -0.02544891 2.62516785 -0.03855896 C3.56246231 -0.03203308 4.49975677 -0.0255072 5.4654541 -0.01878357 C6.46277054 -0.02739914 7.46008698 -0.03601471 8.48762512 -0.04489136 C11.7806298 -0.0675737 15.07278512 -0.0608084 18.36584473 -0.05174255 C20.65600844 -0.05697686 22.94616998 -0.06325263 25.23632812 -0.07052612 C30.03464914 -0.08093437 34.83267367 -0.07636214 39.63098145 -0.06175232 C45.78163408 -0.04455837 51.93135309 -0.06806604 58.08190155 -0.10324192 C62.81054888 -0.12519507 67.53897207 -0.1237795 72.26765442 -0.11547661 C74.53547693 -0.11465607 76.80331574 -0.12153903 79.0710907 -0.13624763 C82.24089079 -0.15365563 85.40900337 -0.13918124 88.57873535 -0.11643982 C89.51602982 -0.12813202 90.45332428 -0.13982422 91.41902161 -0.15187073 C92.285327 -0.13921677 93.15163239 -0.12656281 94.04418945 -0.11352539 C94.79264381 -0.11293908 95.54109818 -0.11235277 96.31223297 -0.1117487 C99.79222421 0.87469746 101.31631753 2.70754418 103.52209473 5.5146637 C104.13733387 8.5974474 104.13733387 8.5974474 104.12336731 12.11422729 C104.12763943 12.76370069 104.13191156 13.41317409 104.13631314 14.0823285 C104.14452635 16.25099422 104.11709088 18.41771052 104.08972168 20.5861969 C104.08831082 22.1435644 104.08910392 23.70093522 104.0919342 25.25830078 C104.09336832 29.48130243 104.06397975 33.70359344 104.02906442 37.92642999 C103.99779996 42.34131784 103.99487011 46.75622214 103.98893738 51.17120361 C103.97339917 59.52936244 103.93237109 67.88719412 103.88218993 76.24520892 C103.81584367 87.54091985 103.78886175 98.83672029 103.75967884 110.13257694 C103.7126691 127.92685089 103.61305693 145.72043448 103.52209473 163.5146637 C66.23209473 163.5146637 28.94209473 163.5146637 -9.47790527 163.5146637 C-9.67942044 123.80274065 -9.67942044 123.80274065 -9.7220459 107.19044495 C-9.75174043 95.70970015 -9.78669131 84.22913851 -9.85510254 72.74855042 C-9.9048975 64.38811809 -9.93718676 56.02783404 -9.94834775 47.66725755 C-9.95487317 43.23923025 -9.97023661 38.81162715 -10.00655556 34.38373566 C-10.04045354 30.21730683 -10.05097095 26.05147756 -10.04344368 21.88492393 C-10.04482102 20.35464153 -10.05479094 18.8243394 -10.07393265 17.2941761 C-10.0987767 15.20602352 -10.09284575 13.12014063 -10.07917786 11.03193665 C-10.08378682 9.86310314 -10.08839579 8.69426964 -10.09314442 7.49001694 C-9.47790527 4.5146637 -9.47790527 4.5146637 -7.22019482 2.13950062 C-4.46223037 0.50537614 -3.14479566 0.0117939 0 0 Z " fill="#A8C4F6" transform="translate(105.4779052734375,288.48533630371094)"/>
<path d="M0 0 C1.07615314 1.6142297 2.1478424 3.23170054 3.19140625 4.8671875 C3.64386719 5.52976562 4.09632812 6.19234375 4.5625 6.875 C5.21412109 7.86113281 5.21412109 7.86113281 5.87890625 8.8671875 C13.49423716 16.52459206 21.6769453 16.76643298 32.0625 16.8125 C33.41865922 16.83568914 34.77478292 16.86106352 36.13085938 16.88867188 C39.42086817 16.94721296 42.70955619 16.98373751 46 17 C45.34798323 21.22846231 43.91480256 24.72384179 42.1484375 28.61132812 C41.54433701 29.9563258 40.94110278 31.30171279 40.33860779 32.64743042 C39.85875836 33.71519526 39.85875836 33.71519526 39.36921501 34.8045311 C22.92090219 71.64341267 11.11827392 102.05121544 14.04594421 142.93293762 C14.30010757 148.10998886 14.07650015 151.35788085 10.8046875 155.64453125 C8.94873047 157.42114258 8.94873047 157.42114258 7 159 C5.68412752 160.35088979 4.37129442 161.70475158 3.0625 163.0625 C-0.97019153 166.51415193 -5.29381072 168.97949 -10 171.375 C-10.97827759 171.87592163 -10.97827759 171.87592163 -11.97631836 172.38696289 C-24.39665798 178.3969044 -39.92838782 179.14728025 -53.125 175.3125 C-69.33476392 169.43108123 -81.4312209 158.98132947 -88.875 143.3125 C-95.13916583 129.22907822 -97.21489701 110.96124446 -92.03149414 96.25152588 C-86.51287025 82.75231324 -79.15039142 70.0230795 -71.9921875 57.34375 C-68.08592173 50.41296067 -64.4762475 43.34228396 -60.875 36.25 C-58.93434272 32.49053651 -56.97270716 28.74272484 -55 25 C-54.49017578 24.01700928 -53.98035156 23.03401855 -53.45507812 22.02124023 C-52.94138672 21.04872314 -52.42769531 20.07620605 -51.8984375 19.07421875 C-51.44388184 18.20627686 -50.98932617 17.33833496 -50.52099609 16.4440918 C-45.30998088 8.07050058 -37.40219309 4.1665205 -28.23413086 1.4831543 C-23.2177376 0.39830649 -17.98788627 0.47564945 -12.875 0.25 C-11.66972656 0.18167969 -10.46445313 0.11335938 -9.22265625 0.04296875 C-8.07410156 -0.00730469 -6.92554687 -0.05757813 -5.7421875 -0.109375 C-4.16219971 -0.18623535 -4.16219971 -0.18623535 -2.55029297 -0.26464844 C-1.28789795 -0.13364746 -1.28789795 -0.13364746 0 0 Z " fill="#FB6067" transform="translate(93,94)"/>
<path d="M0 0 C29.52962018 -0.08822612 59.0591636 -0.16206569 88.58888101 -0.20426132 C92.07723927 -0.20926398 95.56559724 -0.21444129 99.05395508 -0.21972656 C99.74840753 -0.2207758 100.44285997 -0.22182505 101.15835644 -0.22290608 C112.39437617 -0.24029869 123.63031382 -0.27183003 134.8662849 -0.30861118 C146.4003643 -0.34605256 157.93438602 -0.3679433 169.46852499 -0.37635398 C175.94502503 -0.38156766 182.42133905 -0.39381759 188.89777946 -0.42292023 C194.99542035 -0.45009832 201.09279883 -0.45843999 207.19049454 -0.45243073 C209.42657078 -0.45352987 211.66265593 -0.46146923 213.89867973 -0.4768219 C216.95681622 -0.4967868 220.013968 -0.491915 223.0721283 -0.48101807 C223.95250368 -0.49266943 224.83287906 -0.5043208 225.73993248 -0.51632524 C231.95169344 -0.45668853 236.53316241 1.10412532 242 4 C243.5778125 4.8353125 243.5778125 4.8353125 245.1875 5.6875 C250.3224866 9.90960009 253.91989562 15.69632518 256 22 C256.19940072 24.63191226 256.30418006 27.15475587 256.30078125 29.78515625 C256.30506638 30.52326035 256.3093515 31.26136444 256.31376648 32.02183533 C256.3194884 33.57582578 256.32002585 35.129843 256.31567383 36.68383789 C256.31250525 39.0585687 256.33602746 41.43206282 256.36132812 43.80664062 C256.36360053 45.32031093 256.36430489 46.83398458 256.36328125 48.34765625 C256.372491 49.05503433 256.38170074 49.76241241 256.39118958 50.4912262 C256.36518683 53.26427051 256.1593387 55.6127343 255.09958172 58.18842697 C251.5730827 61.2311809 247.53196283 60.53472775 243.03437805 60.48101807 C241.99867603 60.48443577 240.96297401 60.48785347 239.89588708 60.49137473 C236.4085856 60.49798876 232.92204559 60.47591875 229.43481445 60.45410156 C226.94179299 60.45297385 224.4487702 60.45360545 221.95574951 60.45587158 C216.57981295 60.45678388 211.20411561 60.44540323 205.82824135 60.42292023 C198.05563847 60.39043474 190.28312953 60.37999677 182.51046612 60.37496826 C169.90039753 60.36621016 157.29043235 60.33958069 144.68041992 60.30175781 C132.42977415 60.265051 120.17915645 60.23673275 107.9284668 60.21972656 C107.17354509 60.21867567 106.41862338 60.21762477 105.64082525 60.21654204 C101.8536673 60.21132195 98.06650916 60.2062671 94.27935088 60.20129442 C62.85280896 60.15981635 31.42645929 60.08606996 0 60 C0 40.2 0 20.4 0 0 Z " fill="#2E4554" transform="translate(256,452)"/>
<path d="M0 0 C26.4 0 52.8 0 80 0 C74.61476614 37.696637 74.61476614 37.696637 72.82328796 47.67848206 C68.74006915 70.46520162 67.29728008 92.5816411 67.66552734 115.74804688 C67.67203056 117.36786217 67.67203056 117.36786217 67.67866516 119.020401 C67.68687506 121.03851186 67.72267494 123.05679264 67.79240417 125.07371521 C67.78927832 132.62847832 65.10792758 136.58823003 60 142 C59.28714844 142.78632813 58.57429688 143.57265625 57.83984375 144.3828125 C51.60400859 150.09365949 44.67652519 153.65699709 37 157 C36.19046875 157.36351562 35.3809375 157.72703125 34.546875 158.1015625 C22.5335424 162.59606106 8.08291994 161.05098526 -3.640625 156.53515625 C-14.68096515 151.48997755 -26.43963879 143.16678458 -32 132 C-43.56853899 85.95734752 -18.12142655 40.57096166 0 0 Z " fill="#E4E3E6" transform="translate(139,111)"/>
<path d="M0 0 C26.07 0 52.14 0 79 0 C82.96 9.57 86.92 19.14 91 29 C92.83046875 32.94066406 94.6609375 36.88132813 96.546875 40.94140625 C106.72019472 63.23713524 112.92115878 82.84520802 112.6875 107.5625 C112.68079285 109.24147873 112.68079285 109.24147873 112.6739502 110.95437622 C112.63519271 114.14259153 112.53024735 117.31881819 112.38671875 120.50390625 C112.35924057 121.43614014 112.33176239 122.36837402 112.30345154 123.32885742 C111.77992136 130.6308158 108.84637434 134.67841196 104 140 C103.39931198 140.71454849 102.79862396 141.42909698 102.17973328 142.16529846 C96.30760466 149.05398397 88.1346166 152.46273985 80 156 C78.700625 156.57814453 78.700625 156.57814453 77.375 157.16796875 C63.98485459 162.11953294 48.82374757 159.23155886 36.1796875 153.78515625 C26.77042796 149.1609475 16.94539831 141.32620294 12 132 C11.48186625 128.39610203 11.58455505 124.84459948 11.671875 121.2109375 C11.68311417 118.99195243 11.69229841 116.77295624 11.69970703 114.55395508 C11.70923401 113.38442291 11.71876099 112.21489075 11.72857666 111.00991821 C11.88994497 83.63040555 8.7696186 57.5242471 3.98144531 30.61962891 C2.9938099 25.03212583 2.09453142 19.43385433 1.2421875 13.82421875 C1.11498322 13.0036348 0.98777893 12.18305084 0.85671997 11.33760071 C0.74270844 10.57481308 0.6286969 9.81202545 0.51123047 9.02612305 C0.41180145 8.36597702 0.31237244 7.70583099 0.20993042 7.02568054 C-0.03158541 4.69522306 0 2.34293875 0 0 Z " fill="#DCDBE1" transform="translate(294,112)"/>
<path d="M0 0 C24.75 0 49.5 0 75 0 C82.54326371 44.15952298 82.54326371 44.15952298 84.3046875 56.30078125 C84.42957424 57.16159113 84.55446098 58.02240101 84.68313217 58.90929604 C87.03880389 75.40422849 88.18894578 91.63774889 88.125 108.3125 C88.12935059 109.43344055 88.13370117 110.5543811 88.13818359 111.70928955 C88.13678651 114.84638406 88.0857059 117.97724143 88.0078125 121.11328125 C88.00065216 122.00879196 87.99349182 122.90430267 87.9861145 123.82695007 C87.68663662 130.44167674 85.38307403 134.14009377 81 139 C79.94425781 140.23943359 79.94425781 140.23943359 78.8671875 141.50390625 C68.10834204 152.62137989 54.82641094 158.84833188 39.31347656 159.47070312 C23.46116051 159.67145006 9.0386382 154.97202387 -2.55200195 143.87524414 C-9.09640124 137.3771886 -13.42983213 132.66048352 -13.55525208 123.23417664 C-13.54733139 122.23521866 -13.53941071 121.23626068 -13.53125 120.20703125 C-13.53666306 119.15598709 -13.54207611 118.10494293 -13.5476532 117.02204895 C-13.55562885 113.6183563 -13.53041817 110.2160518 -13.5 106.8125 C-13.49545807 105.65651306 -13.49091614 104.50052612 -13.48623657 103.30950928 C-13.41138486 87.16091895 -12.67899994 71.62588148 -9.52148438 55.75244141 C-8.64599029 51.13150491 -8.05929961 46.47304817 -7.4375 41.8125 C-6.40548264 34.407286 -5.12573554 27.08295092 -3.69140625 19.74609375 C-2.76891301 14.74795243 -2.08415841 9.73588669 -1.4296875 4.6953125 C-1 2 -1 2 0 0 Z " fill="#E85562" transform="translate(219,112)"/>
<path d="M0 0 C1.80179784 -0.01275828 1.80179784 -0.01275828 3.63999563 -0.0257743 C6.95291326 -0.04412861 10.26441508 -0.04024945 13.57726276 -0.02663505 C17.15816485 -0.01734753 20.73893007 -0.03689346 24.3197937 -0.0526123 C31.32646592 -0.07865537 38.33288116 -0.07762429 45.33958333 -0.06657412 C51.03629451 -0.05800393 56.73293153 -0.05885574 62.42964363 -0.06637001 C63.2414932 -0.0674249 64.05334276 -0.06847979 64.88979383 -0.06956664 C66.53924073 -0.07173764 68.18868761 -0.07392442 69.83813448 -0.07612679 C85.29367763 -0.09554209 100.74907684 -0.08357277 116.20460821 -0.06134085 C129.45426212 -0.04309263 142.70363732 -0.0539927 155.95326233 -0.08564758 C171.35324585 -0.12243803 186.75305536 -0.13942209 202.15308291 -0.12623531 C203.79665122 -0.12489426 205.44021956 -0.12358528 207.08378792 -0.12230873 C207.89237433 -0.12167807 208.70096073 -0.1210474 209.53404976 -0.12039762 C215.22068937 -0.11737473 220.90719733 -0.12861136 226.59380913 -0.14555931 C233.52872634 -0.16591692 240.46325041 -0.16496523 247.39814728 -0.13692691 C250.93377608 -0.12318522 254.46871934 -0.11890166 258.00432205 -0.14087677 C261.84332989 -0.16442175 265.68126554 -0.14114867 269.52026367 -0.11352539 C270.62893498 -0.12759184 271.73760629 -0.14165829 272.87987369 -0.156151 C280.49994223 -0.04586658 285.87095499 1.79522841 291.82362366 6.64164734 C300.17525238 16.21906561 300.1269631 26.84952954 300.08924866 39.02055359 C300.09059921 40.40100167 300.09254298 41.78144928 300.095047 43.16189575 C300.09797894 46.0405281 300.09376264 48.91903549 300.08436584 51.7976532 C300.07296159 55.46799171 300.07954909 59.13803795 300.09151077 62.80836582 C300.09877263 65.65413577 300.09642188 68.49983755 300.09125519 71.34560966 C300.08929259 73.350668 300.09531327 75.35572911 300.10151672 77.36077881 C300.03978859 89.42039594 298.19973162 98.08842527 289.57362366 106.95414734 C280.28809012 112.65208837 271.63376084 113.20725514 260.98646545 113.11161804 C259.39631066 113.11209353 257.80615559 113.11432034 256.21600533 113.11814404 C251.89218452 113.12347393 247.56879114 113.10396389 243.24504685 113.07999039 C238.63198516 113.0587031 234.01892538 113.06043581 229.40582275 113.05924988 C220.51008201 113.05320636 211.61454013 113.02560174 202.71887535 112.9895221 C195.56835454 112.96081919 188.41784873 112.93959301 181.26728821 112.92372131 C180.25575204 112.92146087 179.24421587 112.91920043 178.20202708 112.91687149 C176.15753812 112.91232019 174.11304913 112.90777909 172.06856012 112.90324819 C153.84914536 112.86188572 135.62989094 112.79680302 117.41059923 112.71890962 C103.8180665 112.66106437 90.22566271 112.62194365 76.63302195 112.60350096 C64.28420329 112.58658442 51.93565016 112.54532314 39.58695984 112.48402405 C35.0157784 112.46194377 30.44475281 112.45026479 25.8735199 112.44746399 C20.61920169 112.4433705 15.36556248 112.41576506 10.11145973 112.36853027 C8.24542982 112.35556949 6.37931964 112.35082496 4.51325035 112.35540771 C-5.77438435 112.37546236 -14.24050859 112.32879749 -22.06092834 104.83605957 C-25.04720509 101.70381152 -26.9061332 99.10065918 -27.17637634 94.64164734 C-27.83637634 94.64164734 -28.49637634 94.64164734 -29.17637634 94.64164734 C-29.97174904 90.42974908 -30.31118615 86.43636208 -30.33750916 82.15238953 C-30.3471167 80.88377075 -30.35672424 79.61515198 -30.36662292 78.30809021 C-30.37147237 76.93490277 -30.37575084 75.56171322 -30.37950134 74.18852234 C-30.38232872 73.48938972 -30.3851561 72.79025711 -30.38806915 72.06993866 C-30.40301352 68.36906564 -30.41227261 64.66823111 -30.41661072 60.96733093 C-30.42208432 57.17037319 -30.44610222 53.37377602 -30.47458267 49.576931 C-30.49332841 46.63415032 -30.49842098 43.69145439 -30.49994659 40.74861908 C-30.50294747 39.35015648 -30.51088777 37.95169443 -30.52413177 36.55329132 C-30.62802456 24.73924214 -29.77811539 14.40221888 -21.17637634 5.64164734 C-14.45269513 0.49606307 -8.25537755 -0.07781613 0 0 Z M-12.17637634 20.64164734 C-13.57722323 23.44334111 -13.33472986 25.78972109 -13.36924744 28.9238739 C-13.37742493 29.56801743 -13.38560242 30.21216095 -13.39402771 30.87582397 C-13.41887411 33.01129733 -13.43539756 35.14670414 -13.44981384 37.28227234 C-13.45513752 38.01213097 -13.4604612 38.74198959 -13.4659462 39.49396515 C-13.49267734 43.35877431 -13.51205036 47.22355121 -13.526474 51.08842468 C-13.53980358 54.28370352 -13.56763642 57.47834225 -13.60850525 60.67338562 C-13.6578835 64.53370507 -13.68260144 68.39344469 -13.68970108 72.25406647 C-13.69640487 73.72286557 -13.71160452 75.19165218 -13.73559189 76.66027069 C-14.22970105 85.61864761 -14.22970105 85.61864761 -10.7686615 93.52738953 C-7.35682903 96.31006698 -5.83981439 96.76673093 -1.53849792 96.76863098 C-0.55488029 96.77145458 0.42873734 96.77427818 1.44216156 96.77718735 C3.07489643 96.77414534 3.07489643 96.77414534 4.74061584 96.77104187 C6.46604237 96.77361937 6.46604237 96.77361937 8.22632599 96.77624893 C11.42915315 96.77985687 14.63194074 96.77887314 17.83476734 96.77582121 C20.57982913 96.77398548 23.32488367 96.77578325 26.0699451 96.77760994 C35.11630242 96.78357719 44.16263468 96.777369 53.20898819 96.76878166 C56.34841605 96.76594801 59.48784424 96.76379093 62.62727261 96.76160908 C84.12360282 96.74634141 105.61985279 96.70774679 127.11612988 96.65860844 C133.11115464 96.64505242 139.10618113 96.63346435 145.10121155 96.62272644 C163.42986549 96.58927859 181.75833102 96.54123843 200.0868187 96.45453072 C201.67783855 96.44703884 203.2688585 96.43956642 204.85987854 96.43211365 C206.03423285 96.42661139 206.03423285 96.42661139 207.23231149 96.42099798 C212.75293715 96.39615018 218.27353449 96.3815302 223.79420471 96.37120056 C230.52430146 96.35846491 237.25416603 96.33191183 243.98412967 96.2872349 C247.4194519 96.26479103 250.85449181 96.24870304 254.2898941 96.24972916 C258.01310153 96.24739141 261.73534698 96.22064812 265.45838928 96.18754578 C266.54701138 96.19257677 267.63563347 96.19760777 268.75724411 96.20279121 C274.64637894 96.12132299 274.64637894 96.12132299 279.97145081 93.79502869 C283.08326251 90.17716047 282.96053977 87.0307074 283.00062561 82.42948914 C283.01346085 81.147733 283.02629608 79.86597687 283.03952026 78.54537964 C283.04768811 77.14387906 283.05513175 75.7423741 283.06190491 74.34086609 C283.06598043 73.63398966 283.07005596 72.92711323 283.07425499 72.1988163 C283.09509768 68.4571881 283.10940704 64.71559638 283.11878967 60.97392273 C283.12984955 57.11696858 283.16424888 53.26059208 283.20396137 49.40384197 C283.23015371 46.43119258 283.23848378 43.4586803 283.24207115 40.48592567 C283.24693053 39.06459973 283.25852616 37.64327965 283.27710915 36.22206688 C283.30155112 34.22884991 283.29811082 32.23535084 283.29359436 30.24198914 C283.2994606 29.1096434 283.30532684 27.97729767 283.31137085 26.81063843 C282.70644284 22.88030015 281.31921406 20.7059998 278.82362366 17.64164734 C275.91676005 16.6726928 274.07228488 16.51374503 271.04873085 16.50742626 C270.06004025 16.50296842 269.07134965 16.49851057 268.05269873 16.49391764 C266.96370949 16.49410201 265.87472024 16.49428637 264.75273132 16.49447632 C263.59805056 16.49079963 262.4433698 16.48712294 261.25369871 16.48333484 C258.04347802 16.47420707 254.83328738 16.46959812 251.62305593 16.46694553 C248.16284992 16.4630425 244.70265872 16.45346431 241.24246216 16.44473267 C232.88470434 16.42497049 224.52694531 16.41490336 216.16916996 16.40600488 C212.23483804 16.40162246 208.30050746 16.39625561 204.36617661 16.39101601 C191.29093264 16.37400565 178.21568951 16.35951017 165.14043617 16.35226727 C161.74739709 16.35035733 158.35435802 16.348437 154.96131897 16.34648132 C154.11798305 16.34599758 153.27464712 16.34551384 152.40575556 16.34501544 C138.73581208 16.33671019 125.06595596 16.31136409 111.39605065 16.27890065 C97.36682581 16.24585494 83.33764541 16.22782085 69.30838144 16.22462302 C61.42920728 16.22245585 53.5501606 16.2136768 45.67102432 16.18816185 C38.96282042 16.16648897 32.25477498 16.1583876 25.54654004 16.16812863 C22.1230754 16.17268304 18.69993794 16.17072157 15.27651787 16.15136719 C11.56689364 16.13378238 7.85810675 16.1406891 4.14848328 16.15390015 C2.52169157 16.13744628 2.52169157 16.13744628 0.86203539 16.12066001 C-4.7041257 16.16871548 -8.25719502 16.21570045 -12.17637634 20.64164734 Z " fill="#374D5E" transform="translate(121.17637634277344,-0.6416473388671875)"/>
<path d="M0 0 C0.82331409 -0.00060267 1.64662817 -0.00120535 2.49489117 -0.00182629 C5.14987842 0.00189449 7.80309209 0.03991154 10.45776367 0.0793457 C12.1007808 0.08670075 13.74380963 0.09179941 15.38684082 0.09460449 C21.46665048 0.12077703 27.54620903 0.19058364 33.62573242 0.25512695 C47.21760742 0.35825195 60.80948242 0.46137695 74.81323242 0.56762695 C74.81323242 45.11762695 74.81323242 89.66762695 74.81323242 135.56762695 C61.03573242 135.67075195 47.25823242 135.77387695 33.06323242 135.88012695 C26.53977051 135.94840698 26.53977051 135.94840698 19.88452148 136.01806641 C14.57055664 136.04064941 14.57055664 136.04064941 12.08221436 136.04484558 C10.34565832 136.05251962 8.60912882 136.07009751 6.8727417 136.09550476 C4.24078152 136.13208839 1.61044768 136.13715804 -1.02172852 136.13525391 C-1.79427853 136.15324445 -2.56682854 136.17123499 -3.36278915 136.1897707 C-6.80434139 136.15642374 -8.85201986 135.80923649 -11.66374207 133.77983093 C-14.02405452 128.80171007 -13.75129424 124.04830685 -13.72021484 118.60473633 C-13.72883041 117.39284134 -13.73744598 116.18094635 -13.74632263 114.93232727 C-13.76511654 111.61593632 -13.76588444 108.30054574 -13.75700116 104.98417854 C-13.75188472 102.21322512 -13.759189 99.44236098 -13.76647323 96.67141676 C-13.78346281 90.13397355 -13.77991556 83.59676383 -13.76318359 77.05932617 C-13.74625608 70.31932023 -13.76210681 63.57996164 -13.79440647 56.84002638 C-13.82111026 51.04791462 -13.82837655 45.25600428 -13.81989139 39.46383715 C-13.81496518 36.00672566 -13.81716066 32.55000378 -13.83767891 29.09294128 C-13.85946142 25.23854247 -13.84062838 21.38492318 -13.81787109 17.53051758 C-13.82956329 16.38750687 -13.84125549 15.24449615 -13.853302 14.06684875 C-13.79608224 9.31246244 -13.73246464 6.43206888 -11.15899658 2.35542297 C-7.37968401 0.08216611 -4.28427735 -0.10147201 0 0 Z " fill="#B5CCFE" transform="translate(253.186767578125,288.432373046875)"/>
<path d="M0 0 C35.15768018 -0.1209091 35.15768018 -0.1209091 49.87695312 -0.14648438 C60.04504936 -0.16429354 70.21307109 -0.1852433 80.38110352 -0.22631836 C87.78603986 -0.25621729 95.19091582 -0.27557418 102.59591085 -0.28226548 C106.5169248 -0.28617692 110.437766 -0.29537159 114.35872459 -0.31719017 C118.04983339 -0.33756319 121.74069838 -0.3438322 125.43185806 -0.33932304 C127.43122212 -0.34054097 129.43055968 -0.35667885 131.42985535 -0.3732605 C133.21975891 -0.36707451 133.21975891 -0.36707451 135.04582214 -0.36076355 C136.59858243 -0.36491162 136.59858243 -0.36491162 138.1827116 -0.36914349 C141.45855217 0.06008315 143.33460903 1.0820681 146 3 C148.37237892 6.28046201 148.25849616 9.37503484 148.2746582 13.34155273 C148.28419022 14.62646103 148.29372223 15.91136932 148.30354309 17.23521423 C148.30328165 18.63467435 148.30234456 20.03413448 148.30078125 21.43359375 C148.30466995 22.87321598 148.30900498 24.31283706 148.31376648 25.75245667 C148.3212218 28.76770754 148.32094245 31.7828413 148.31567383 34.7980957 C148.30988001 38.65616664 148.3268109 42.51375737 148.3500185 46.37174892 C148.36477258 49.34437345 148.36562529 52.31688277 148.36250877 55.28953743 C148.36302115 56.71165989 148.36824315 58.13378893 148.37832069 59.55587578 C148.3906988 61.54689729 148.38194269 63.53801602 148.37231445 65.52905273 C148.37294388 66.66060287 148.3735733 67.79215302 148.3742218 68.95799255 C147.95109706 72.39752655 147.06757172 74.24125988 145 77 C141.55412542 79.29724972 140.3038117 79.24766781 136.24836731 79.24050903 C134.44996651 79.24463303 134.44996651 79.24463303 132.61523438 79.24884033 C131.29821533 79.24164978 129.98119629 79.23445923 128.62426758 79.22705078 C127.22482817 79.2264867 125.82538816 79.22680317 124.4259491 79.22793579 C120.62454339 79.22851042 116.82326349 79.21673837 113.02188706 79.20278788 C109.05005418 79.19029881 105.07821851 79.18911146 101.10636902 79.18673706 C93.58408961 79.18051692 86.06186822 79.16409889 78.53961438 79.14403808 C68.37551692 79.11751931 58.21140363 79.10671075 48.04728031 79.09503365 C32.03147673 79.07621866 16.01579561 79.03637657 0 79 C0 52.93 0 26.86 0 0 Z " fill="#DBDBE1" transform="translate(256,16)"/>
<path d="M0 0 C0 53.79 0 107.58 0 163 C-18.48 163 -36.96 163 -56 163 C-56.11281388 142.33805078 -56.20494137 121.67635043 -56.25906086 101.0141716 C-56.284856 91.42063125 -56.32003147 81.82729566 -56.37719727 72.23388672 C-56.42699222 63.8734544 -56.45928149 55.51317034 -56.47044247 47.15259385 C-56.4769679 42.72456655 -56.49233134 38.29696346 -56.52865028 33.86907196 C-56.56254827 29.70264313 -56.57306568 25.53681387 -56.56553841 21.37026024 C-56.56691575 19.83997783 -56.57688566 18.30967571 -56.59602737 16.77951241 C-56.62087143 14.69135983 -56.61494047 12.60547694 -56.60127258 10.51727295 C-56.60588155 9.34843945 -56.61049051 8.17960594 -56.61523914 6.97535324 C-52.76491434 -11.64517261 -19.01444146 0 0 0 Z " fill="#B5CDFE" transform="translate(152,289)"/>
<path d="M0 0 C1.32935326 -0.002062 1.32935326 -0.002062 2.68556213 -0.00416565 C3.66019913 -0.00057037 4.63483612 0.0030249 5.63900757 0.00672913 C6.66342453 0.0065831 7.68784149 0.00643707 8.74330139 0.00628662 C12.14133801 0.00698526 15.53932033 0.01477541 18.93734741 0.02259827 C21.2886146 0.02446262 23.63988218 0.02588644 25.9911499 0.02688599 C32.18898587 0.03070981 38.38679851 0.04053895 44.58462524 0.05158997 C50.90532109 0.06180699 57.22602069 0.06638423 63.54672241 0.07142639 C75.95558684 0.08216132 88.36443394 0.09923614 100.77328491 0.12025452 C100.9515142 7.36068203 101.07366829 14.60053925 101.1578064 21.84266663 C101.19289869 24.30349364 101.24058599 26.76417586 101.30136108 29.22450256 C101.38676871 32.77214867 101.42608783 36.31785777 101.45687866 39.86634827 C101.49300766 40.95733322 101.52913666 42.04831818 101.56636047 43.17236328 C101.570449 51.21767919 99.35100368 55.41593404 93.77328491 61.12025452 C92.754636 62.18879921 92.754636 62.18879921 91.71540833 63.27893066 C87.30729073 67.74380345 82.31376006 70.67508244 76.77328491 73.49525452 C76.12109985 73.82920227 75.46891479 74.16315002 74.79696655 74.50721741 C62.37662693 80.51715891 46.8448971 81.26753476 33.64828491 77.43275452 C17.43852099 71.55133575 5.34206401 61.10158399 -2.10171509 45.43275452 C-6.4418103 35.67512787 -6.47737236 26.56877526 -6.35171509 16.12025452 C-6.34166664 14.66322941 -6.33254408 13.2061976 -6.32437134 11.74916077 C-6.3025022 8.20605122 -6.26807486 4.6631964 -6.22671509 1.12025452 C-3.90558721 -0.04030942 -2.58343884 -0.00308286 0 0 Z " fill="#EA5761" transform="translate(6.226715087890625,191.87974548339844)"/>
<path d="M0 0 C32.67 0.33 65.34 0.66 99 1 C99.2165625 13.5915625 99.2165625 13.5915625 99.4375 26.4375 C99.50122803 29.07032959 99.56495605 31.70315918 99.63061523 34.41577148 C99.65107846 36.52585358 99.66891152 38.63596351 99.68359375 40.74609375 C99.7373114 42.36118835 99.7373114 42.36118835 99.79211426 44.00891113 C99.79858014 52.07001898 97.57179004 56.25804081 92 62 C91.28714844 62.78632813 90.57429688 63.57265625 89.83984375 64.3828125 C83.60400859 70.09365949 76.67652519 73.65699709 69 77 C68.19046875 77.36351562 67.3809375 77.72703125 66.546875 78.1015625 C54.5335424 82.59606106 40.08291994 81.05098526 28.359375 76.53515625 C17.18992501 71.43097736 5.76700476 63.1770352 0 52 C-0.36076355 49.42460632 -0.36076355 49.42460632 -0.34057617 46.65893555 C-0.34021362 45.60379761 -0.33985107 44.54865967 -0.33947754 43.46154785 C-0.32412964 42.36435425 -0.30878174 41.26716064 -0.29296875 40.13671875 C-0.28994751 39.11952759 -0.28692627 38.10233643 -0.28381348 37.05432129 C-0.26815219 33.26527721 -0.22626821 29.47637811 -0.1875 25.6875 C-0.125625 17.210625 -0.06375 8.73375 0 0 Z " fill="#DCDBE1" transform="translate(107,191)"/>
<path d="M0 0 C0.17822928 7.24042751 0.30038338 14.48028473 0.38452148 21.72241211 C0.41961378 24.18323913 0.46730107 26.64392135 0.52807617 29.10424805 C0.6134838 32.65189415 0.65280292 36.19760325 0.68359375 39.74609375 C0.71972275 40.8370787 0.75585175 41.92806366 0.79307556 43.05210876 C0.79718894 51.14634389 -1.48541274 55.21081801 -7 61 C-7.60159439 61.71228256 -8.20318878 62.42456512 -8.82301331 63.15843201 C-14.67491875 70.05996046 -22.87110274 73.46522686 -31 77 C-31.86625 77.38542969 -32.7325 77.77085937 -33.625 78.16796875 C-47.01514541 83.11953294 -62.17625243 80.23155886 -74.8203125 74.78515625 C-83.61525156 70.46285714 -95.13332022 62.26537949 -99 53 C-99.54498417 49.00764796 -99.4656853 45.06189201 -99.390625 41.0390625 C-99.38496521 39.89335785 -99.37930542 38.7476532 -99.37347412 37.56723022 C-99.35114072 33.91938945 -99.30094736 30.27254232 -99.25 26.625 C-99.22993119 24.14714963 -99.21168109 21.66928382 -99.1953125 19.19140625 C-99.15128576 13.12726697 -99.08440286 7.06370449 -99 1 C-86.23965801 0.8695565 -73.47931547 0.73916736 -60.71897221 0.60884857 C-54.79450007 0.54834141 -48.87002814 0.48781519 -42.94555664 0.42724609 C-37.23327618 0.36884704 -31.52099523 0.31049713 -25.80871391 0.25218201 C-23.62411926 0.2298713 -21.43952478 0.20754257 -19.2549305 0.18519592 C-16.20649386 0.15401587 -13.15805658 0.12289863 -10.10961914 0.09179688 C-8.74045349 0.07777077 -8.74045349 0.07777077 -7.34362793 0.0634613 C-1.11405216 0 -1.11405216 0 0 0 Z " fill="#D2D1DA" transform="translate(405,191)"/>
<path d="M0 0 C18.993626 -0.13909083 37.98710741 -0.24606791 56.98113823 -0.31087303 C65.80107879 -0.34176748 74.62069644 -0.38386306 83.44042969 -0.45263672 C91.13071228 -0.5125745 98.82076094 -0.5511812 106.51127064 -0.56453097 C110.58077475 -0.57233061 114.64960981 -0.5905677 118.71889877 -0.63438034 C122.55548334 -0.67534974 126.39112844 -0.6876208 130.227911 -0.67864609 C131.62991264 -0.68028597 133.03194832 -0.69207683 134.43375969 -0.71523285 C143.39313908 -0.85587031 150.01107577 0.06995537 157 6 C165.33548414 15.60503388 165.30340461 26.18685186 165.265625 38.37890625 C165.26697555 39.75935433 165.26891932 41.13980194 165.27142334 42.52024841 C165.27435529 45.39888076 165.27013898 48.27738815 165.26074219 51.15600586 C165.24933793 54.82634438 165.25592544 58.49639061 165.26788712 62.16671848 C165.27514898 65.01248843 165.27279822 67.85819022 165.26763153 70.70396233 C165.26566894 72.70902066 165.27168961 74.71408177 165.27789307 76.71913147 C165.22200045 87.63868317 163.91020813 95.30207634 157 104 C149.24139015 111.55967114 141.163438 111.42587633 130.89477539 111.34057617 C129.4651898 111.33972904 128.0356029 111.34020672 126.60601807 111.34190369 C122.7407379 111.34276173 118.87573904 111.32516721 115.01052403 111.30418181 C110.96531822 111.28538296 106.92010542 111.28366205 102.87486267 111.28010559 C95.2216433 111.27079453 87.56855304 111.24619352 79.91539043 111.21605712 C71.19957178 111.18248383 62.48374686 111.16601975 53.76787961 111.15097082 C35.84517794 111.11964308 17.9226041 111.06629409 0 111 C0 105.72 0 100.44 0 95 C2.65515656 94.99120064 2.65515656 94.99120064 5.36395264 94.98222351 C22.02147487 94.92508395 38.67886675 94.85254664 55.33625412 94.76428509 C63.9005892 94.71930235 72.46488246 94.67989345 81.02929688 94.65356445 C88.49326563 94.63060439 95.95710233 94.5972288 103.42096639 94.55129844 C107.3737505 94.5273392 111.32640362 94.50862819 115.27925873 94.50238609 C118.99918036 94.49634735 122.71876668 94.47639189 126.4385643 94.44572449 C128.45594129 94.43272614 130.47339655 94.43451751 132.49081421 94.4367218 C133.69112274 94.42418365 134.89143127 94.41164551 136.12811279 94.39872742 C137.17158245 94.39411845 138.21505211 94.38950949 139.29014206 94.38476086 C142.40617553 93.94232892 143.76687771 93.18975404 146 91 C147.09822083 87.70533752 147.14022216 85.24169132 147.16113281 81.77197266 C147.17074036 80.48698883 147.1803479 79.202005 147.19024658 77.87808228 C147.19509448 76.47341082 147.19937333 75.06873731 147.203125 73.6640625 C147.20887878 72.22301227 147.21463649 70.78196206 147.22039795 69.34091187 C147.23089928 66.31971887 147.23674767 63.29855242 147.24023438 60.27734375 C147.24571837 56.41142932 147.26974766 52.54586721 147.29820633 48.68006325 C147.31685566 45.70316552 147.32203951 42.7263523 147.32357025 39.74940109 C147.32659197 38.32447762 147.33460432 36.89955547 147.34775543 35.47468948 C147.3648625 33.478803 147.36108413 31.48277081 147.35644531 29.48681641 C147.36009094 28.35225006 147.36373657 27.21768372 147.36749268 26.04873657 C146.95273679 22.6079022 146.10936077 20.7323965 144 18 C140.84511668 16.94837223 138.5999032 16.8623994 135.28633118 16.84178162 C134.09581146 16.8319928 132.90529175 16.82220398 131.67869568 16.81211853 C130.37102737 16.80636307 129.06335907 16.8006076 127.71606445 16.79467773 C126.32647409 16.78509853 124.93688664 16.77508842 123.54730225 16.76467896 C119.7728255 16.73762843 115.99833625 16.71661967 112.22381616 16.69667697 C108.27998081 16.67481834 104.33618401 16.64742905 100.39237976 16.62062073 C92.92327325 16.57069219 85.45414535 16.52575395 77.98499697 16.48259836 C69.48204079 16.43322737 60.97912329 16.37830873 52.47620451 16.32291877 C34.98417187 16.20909624 17.49210279 16.10245457 0 16 C0 10.72 0 5.44 0 0 Z " fill="#304756" transform="translate(256,0)"/>
<path d="M0 0 C12.21 0 24.42 0 37 0 C37 26.4 37 52.8 37 80 C20.83 80 4.66 80 -12 80 C-11.35995271 71.03933795 -10.61641313 62.44146302 -9.1875 53.625 C-8.92573975 51.96549316 -8.92573975 51.96549316 -8.65869141 50.27246094 C-7.28044834 41.58841912 -5.83368516 32.91554379 -4.36669922 24.24609375 C-3.25485057 17.64845734 -2.25823953 11.0492794 -1.39453125 4.4140625 C-1 2 -1 2 0 0 Z " fill="#FB6067" transform="translate(219,112)"/>
<path d="M0 0 C7.29279321 3.64639661 11.74148344 8.76942289 14.6484375 16.32421875 C16.28733708 21.24091748 15.91675333 26.30029038 15.9609375 31.44921875 C15.98994141 32.55265625 16.01894531 33.65609375 16.04882812 34.79296875 C16.12781129 45.02432666 13.53751024 52.07677367 6.5859375 59.59765625 C0.51992722 65.00325412 -6.49267216 66.70238265 -14.44140625 66.59765625 C-22.48299045 65.84207116 -29.06608035 61.25543853 -34.3515625 55.32421875 C-39.16078752 47.76289387 -39.5886213 40.99063284 -39.6640625 32.19921875 C-39.69306641 31.09578125 -39.72207031 29.99234375 -39.75195312 28.85546875 C-39.82396553 19.52709279 -37.74243803 11.93619907 -31.30859375 4.96484375 C-21.31337989 -3.41437745 -11.80219064 -4.71095845 0 0 Z " fill="#304756" transform="translate(299.3515625,23.67578125)"/>
<path d="M0 0 C1.06025391 -0.020625 2.12050781 -0.04125 3.21289062 -0.0625 C12.57673193 -0.10871267 20.02847651 1.18345952 27 7.703125 C32.74548166 13.88576288 32.91122156 20.5818575 32.84375 28.6953125 C32.13448037 34.90142178 29.23422662 38.759932 24.65625 42.8359375 C18.72308822 47.33785411 13.56182504 48.54779486 6.125 48.375 C5.38443359 48.36597656 4.64386719 48.35695312 3.88085938 48.34765625 C2.06626533 48.32424213 0.25183929 48.28837615 -1.5625 48.25 C-1.50449219 49.34699219 -1.44648438 50.44398437 -1.38671875 51.57421875 C-1.33980312 53.02860314 -1.29430489 54.48303374 -1.25 55.9375 C-1.20810547 56.65873047 -1.16621094 57.37996094 -1.12304688 58.12304688 C-1.02745965 62.30976727 -1.21058803 63.80082593 -3.89453125 67.2265625 C-6.5625 69.25 -6.5625 69.25 -9.5625 69.9375 C-12.91439548 69.16935729 -14.39752729 68.04637997 -16.51266479 65.35574341 C-18.81451638 60.73872468 -18.24713003 55.41529157 -18.19140625 50.37109375 C-18.19381821 49.12626724 -18.19623016 47.88144073 -18.19871521 46.59889221 C-18.19748745 43.30093186 -18.17248062 40.00417229 -18.13897705 36.7064209 C-18.12500034 34.68754952 -18.12858627 32.66951954 -18.13891602 30.65063477 C-18.15768528 26.76539714 -18.14826746 22.88131063 -18.12890625 18.99609375 C-18.13386612 17.79391708 -18.13882599 16.59174042 -18.14393616 15.35313416 C-18.02647881 7.03547313 -18.02647881 7.03547313 -15.65209961 3.01586914 C-10.99333025 -0.92114205 -5.85457517 0.02776325 0 0 Z " fill="#314756" transform="translate(344.5625,20.75)"/>
<path d="M0 0 C3.93010586 1.21475999 5.12689617 1.67929482 7.4375 5.0625 C7.93638799 8.8255079 7.81151131 12.52521642 7.6875 16.3125 C7.605 19.86 7.5225 23.4075 7.4375 27.0625 C15.0275 27.0625 22.6175 27.0625 30.4375 27.0625 C30.24036793 20.04649519 30.24036793 20.04649519 29.98706055 13.0324707 C29.91953741 8.26969338 29.88890657 5.82661228 32.734375 1.86328125 C35.4375 0.0625 35.4375 0.0625 39 -0.0625 C43.30770919 1.34729574 44.20888594 2.105573 46.4375 6.0625 C47.04123996 10.32081043 46.99760163 14.54887663 46.96875 18.84375 C46.9725769 20.08999146 46.97640381 21.33623291 46.98034668 22.62023926 C46.98376209 25.92624947 46.96769496 29.23150458 46.9453125 32.53741455 C46.93750644 34.56083158 46.94528521 36.58355472 46.95898438 38.60693359 C46.98369702 42.49869956 46.9807008 46.38944121 46.96875 50.28125 C46.97684692 51.48656372 46.98494385 52.69187744 46.99328613 53.93371582 C46.90015252 62.24105573 46.90015252 62.24105573 44.61914062 66.29101562 C41.50204064 68.82208965 39.43170537 69.20264756 35.4375 69.0625 C32.734375 67.23046875 32.734375 67.23046875 30.4375 64.0625 C29.82965095 60.43252823 29.96614196 56.91723072 30.125 53.25 C30.228125 49.888125 30.33125 46.52625 30.4375 43.0625 C22.8475 43.0625 15.2575 43.0625 7.4375 43.0625 C7.51639201 49.46452838 7.51639201 49.46452838 7.61767578 55.86621094 C7.6226709 56.66833008 7.62766602 57.47044922 7.6328125 58.296875 C7.64328613 59.11381836 7.65375977 59.93076172 7.66455078 60.77246094 C7.41240925 63.31556582 6.76681285 64.89308993 5.4375 67.0625 C2.76116974 69.1440902 1.31996332 69.05837591 -2.125 68.9375 C-5.5625 68.0625 -5.5625 68.0625 -7.25109863 66.36973572 C-8.88808114 63.48968343 -8.95524867 61.57725472 -8.98242188 58.27172852 C-8.99833374 57.10694473 -9.01424561 55.94216095 -9.03063965 54.74208069 C-9.03094177 52.86074684 -9.03094177 52.86074684 -9.03125 50.94140625 C-9.03886353 49.64935776 -9.04647705 48.35730927 -9.05432129 47.02610779 C-9.06775443 44.29327712 -9.06934033 41.56073527 -9.06347656 38.82788086 C-9.05758104 35.33264871 -9.0881677 31.83880596 -9.12859344 28.34384251 C-9.16072119 25.00131983 -9.15635414 21.65908284 -9.15625 18.31640625 C-9.17264526 17.06420792 -9.18904053 15.81200958 -9.20593262 14.52186584 C-9.12900055 4.86601753 -9.12900055 4.86601753 -6.24804688 1.73803711 C-3.5625 0.0625 -3.5625 0.0625 0 0 Z " fill="#364C5E" transform="translate(202.5625,20.9375)"/>
<path d="M0 0 C3.31656749 2.83581734 6.40699351 5.67411089 8.75390625 9.3828125 C8.63471824 12.77967068 8.3351932 15.32281865 6.69140625 18.3203125 C3.42981756 20.10892565 0.29263208 20.22007111 -3.24609375 19.3828125 C-5.18272129 17.99537784 -6.80745898 16.44640333 -8.5234375 14.796875 C-11.31387551 12.50631137 -13.71539421 12.31742918 -17.24609375 12.3828125 C-20.17408318 13.53693586 -20.17408318 13.53693586 -22.24609375 15.3828125 C-22.24609375 16.0428125 -22.24609375 16.7028125 -22.24609375 17.3828125 C-17.49085361 19.90029258 -12.8254473 21.90955607 -7.74609375 23.6953125 C-1.28073571 26.12826953 4.19276892 29.30020745 7.9375 35.26953125 C10.03485177 40.69856143 9.56092119 47.37611955 7.31640625 52.6953125 C3.84174654 58.73873849 -2.82849736 62.18419152 -9.24609375 64.3828125 C-18.00646981 65.82211599 -25.0212363 63.32889951 -32.24609375 58.3828125 C-34.90153578 55.96655551 -36.832146 53.69695248 -38.24609375 50.3828125 C-38.37581079 46.42644287 -38.1716372 44.48634507 -35.62109375 41.4453125 C-32.08916217 39.86523785 -30.09680901 39.74102662 -26.24609375 40.3828125 C-24.07680411 42.06957156 -22.14806129 43.91683294 -20.1640625 45.81640625 C-18.22700144 47.66015166 -18.22700144 47.66015166 -14.99609375 47.9453125 C-12.40785213 47.41589944 -10.48910116 46.76312475 -8.24609375 45.3828125 C-8.44207295 43.4284069 -8.44207295 43.4284069 -9.24609375 41.3828125 C-10.99520073 40.21159556 -10.99520073 40.21159556 -13.21875 39.48828125 C-14.03287354 39.17600586 -14.84699707 38.86373047 -15.68579102 38.54199219 C-16.55131592 38.22133789 -17.41684082 37.90068359 -18.30859375 37.5703125 C-25.92743458 34.56601766 -32.828088 31.72922015 -37.40234375 24.57421875 C-39.42120654 19.33078345 -39.32875127 12.47140909 -37.4765625 7.1875 C-33.88517347 1.52757241 -27.05949551 -2.66954575 -20.63671875 -4.265625 C-13.10653278 -5.37300529 -6.25308764 -4.5022231 0 0 Z " fill="#364C5E" transform="translate(173.24609375,25.6171875)"/>
<path d="M0 0 C2.91128986 1.85854665 5.42922037 3.85844074 7 7 C7.26640863 10.43142384 7.23156403 13.87188717 7.25 17.3125 C7.270625 18.26318359 7.29125 19.21386719 7.3125 20.19335938 C7.3620714 29.0604434 7.3620714 29.0604434 4 33 C-0.06979551 35.6227571 -3.17705921 36.61569457 -8 36 C-11.26348259 34.63389101 -12.6882898 33.48152811 -14.61328125 30.5078125 C-16.433407 25.90366342 -16.51442867 21.90574809 -16.5 17 C-16.52835937 16.1234375 -16.55671875 15.246875 -16.5859375 14.34375 C-16.59919138 9.94346222 -16.43774172 6.94463052 -13.5859375 3.46484375 C-8.90384452 -0.99799714 -6.44320992 -1.66634739 0 0 Z " fill="#D8D9DF" transform="translate(292,38)"/>
<path d="M0 0 C4.0892223 0.66914547 5.01870613 1.25093242 7.4375 4.5625 C7.86556075 7.53530809 8.04301118 10.03728876 8 13 C8.02384766 13.75087891 8.04769531 14.50175781 8.07226562 15.27539062 C8.06113804 19.49274413 7.77710443 21.12780633 5.09375 24.5625 C2.4375 26.5625 2.4375 26.5625 -0.625 27.125 C-4.17984581 26.44428485 -5.339546 25.36177541 -7.5625 22.5625 C-9.0560473 19.5754054 -8.86881228 16.5251552 -8.9375 13.25 C-8.98648438 11.93386719 -9.03546875 10.61773437 -9.0859375 9.26171875 C-8.27741049 3.54772561 -5.68153298 0.89708415 0 0 Z " fill="#354C5F" transform="translate(174.5625,376.4375)"/>
<path d="M0 0 C12.1944491 -0.49270501 12.1944491 -0.49270501 15.88671875 1.765625 C18.09446534 4.09987833 18.68633329 4.85973576 18.625 8 C18.63789063 8.66 18.65078125 9.32 18.6640625 10 C17.60342502 13.19439053 15.82648355 14.2712171 13 16 C8.59901209 16.51594231 4.44953234 16.17977908 0 16 C0 10.72 0 5.44 0 0 Z " fill="#D4D5DB" transform="translate(343,37)"/>
</svg>
